<?xml version="1.0" encoding="UTF-8"?>
<svg width="25px" height="25px" viewBox="0 0 25 25" version="1.1" xmlns="http://www.w3.org/2000/svg" xmlns:xlink="http://www.w3.org/1999/xlink">
    <!-- Generator: Sketch 48.2 (47327) - http://www.bohemiancoding.com/sketch -->
    <title>Group</title>
    <desc>Created with Sketch.</desc>
    <defs></defs>
    <g id="Symbols" stroke="none" stroke-width="1" fill="none" fill-rule="evenodd">
        <g id="Group" transform="translate(1.000000, 1.000000)" stroke="#FF9500">
            <circle id="Icon" cx="11.5" cy="11.5" r="7.5"></circle>
            <path d="M11.5,15.5909091 C13.7593467,15.5909091 15.5909091,13.7593467 15.5909091,11.5 C15.5909091,9.2406533 13.7593467,7.40909091 11.5,7.40909091 C9.2406533,7.40909091 7.40909091,9.2406533 7.40909091,11.5 C7.40909091,13.7593467 9.2406533,15.5909091 11.5,15.5909091 Z M11.5,16 C9.01471863,16 7,13.9852814 7,11.5 C7,9.01471863 9.01471863,7 11.5,7 C13.9852814,7 16,9.01471863 16,11.5 C16,13.9852814 13.9852814,16 11.5,16 Z" id="Oval" stroke-width="2" fill="#FF9500" fill-rule="nonzero"></path>
            <path d="M11.5,21.9545455 C17.273886,21.9545455 21.9545455,17.273886 21.9545455,11.5 C21.9545455,5.72611398 17.273886,1.04545455 11.5,1.04545455 C5.72611398,1.04545455 1.04545455,5.72611398 1.04545455,11.5 C1.04545455,17.273886 5.72611398,21.9545455 11.5,21.9545455 Z M11.5,23 C5.14872538,23 0,17.8512746 0,11.5 C0,5.14872538 5.14872538,0 11.5,0 C17.8512746,0 23,5.14872538 23,11.5 C23,17.8512746 17.8512746,23 11.5,23 Z" id="Oval" stroke-dasharray="1,2,2" fill-rule="nonzero"></path>
        </g>
    </g>
</svg>